<svg width="945" height="495" viewBox="0 0 945 495" fill="none" xmlns="http://www.w3.org/2000/svg">
<g clip-path="url(#clip0_1_19)">
<mask id="mask0_1_19" style="mask-type:luminance" maskUnits="userSpaceOnUse" x="0" y="0" width="945" height="495">
<path d="M0 0H945V495H0V0Z" fill="white"/>
</mask>
<g mask="url(#mask0_1_19)">
<path d="M0 0H945V495H0V0Z" fill="white"/>
<path d="M472.93 652.672C644.547 652.672 783.67 513.549 783.67 341.932C783.67 170.315 644.547 31.192 472.93 31.192C301.313 31.192 162.19 170.315 162.19 341.932C162.19 513.549 301.313 652.672 472.93 652.672Z" fill="#C3DCF4"/>
<path d="M330.511 283.253L356.888 293.565L292.784 457.532L266.407 447.219L330.511 283.253Z" fill="black"/>
<path d="M411.663 454.624L406.745 482.515L281.546 460.438L286.463 432.548L411.663 454.624Z" fill="black"/>
<path d="M347.995 339.652C374.675 339.652 396.304 318.023 396.304 291.343C396.304 264.663 374.675 243.034 347.995 243.034C321.315 243.034 299.686 264.663 299.686 291.343C299.686 318.023 321.315 339.652 347.995 339.652Z" fill="#BCBCBC"/>
<path d="M281.546 475.706C298.171 475.706 311.647 462.229 311.647 445.604C311.647 428.979 298.171 415.503 281.546 415.503C264.921 415.503 251.445 428.979 251.445 445.604C251.445 462.229 264.921 475.706 281.546 475.706Z" fill="white"/>
<path fill-rule="evenodd" clip-rule="evenodd" d="M373.895 250.469C380.351 244.697 380.987 234.563 373.779 229.764C351.079 214.65 320.215 216.106 298.935 235.134C277.661 254.155 272.745 284.675 285.186 308.946C289.141 316.663 299.297 317.171 305.761 311.391L373.895 250.469Z" fill="white"/>
<path d="M615.349 283.253L588.972 293.565L653.076 457.532L679.453 447.219L615.349 283.253Z" fill="black"/>
<path d="M534.197 454.624L539.115 482.515L664.314 460.439L659.397 432.548L534.197 454.624Z" fill="black"/>
<path d="M597.865 339.652C571.185 339.652 549.556 318.023 549.556 291.343C549.556 264.663 571.185 243.034 597.865 243.034C624.545 243.034 646.174 264.663 646.174 291.343C646.174 318.023 624.545 339.652 597.865 339.652Z" fill="#BCBCBC"/>
<path d="M664.313 475.706C647.689 475.706 634.212 462.229 634.212 445.604C634.212 428.98 647.689 415.503 664.313 415.503C680.938 415.503 694.415 428.98 694.415 445.604C694.415 462.229 680.938 475.706 664.313 475.706Z" fill="white"/>
<path fill-rule="evenodd" clip-rule="evenodd" d="M571.105 250.469C564.649 244.697 564.013 234.563 571.221 229.764C593.921 214.65 624.785 216.106 646.065 235.134C667.339 254.155 672.255 284.675 659.814 308.946C655.859 316.663 645.704 317.171 639.239 311.391L571.105 250.469Z" fill="white"/>
<path d="M352.065 310.512C349.39 294.667 357.543 278.969 372.044 272.043L409.573 254.119C448.347 235.6 493.39 235.488 532.254 253.814L569.99 271.607C585.076 278.721 593.298 295.267 589.858 311.587L562.382 441.924H374.244L352.065 310.512Z" fill="white"/>
<path d="M583.346 495H361.316C352.21 495 344.825 486.908 344.825 476.924V335.393C344.825 325.409 352.21 317.317 361.316 317.317H583.346C592.452 317.317 599.837 325.409 599.837 335.393V476.924C599.837 486.899 592.443 495 583.346 495Z" fill="#3D3D3D"/>
<path d="M472.327 411.33C479.434 411.33 485.215 405.553 485.215 398.43C485.215 391.307 479.443 385.53 472.327 385.53C465.21 385.53 459.438 391.307 459.438 398.43C459.438 405.553 465.21 411.33 472.327 411.33Z" fill="#3D3D3D"/>
<path d="M437.132 176.544H501.09V249.065C501.09 258.811 495.269 267.748 485.88 270.36C480.371 271.893 474.246 273.168 469.111 273.168C463.976 273.168 457.851 271.893 452.342 270.36C442.953 267.748 437.132 258.811 437.132 249.065V176.544Z" fill="#BCBCBC"/>
<path d="M410.062 139.57C412.817 109.105 438.356 85.772 468.945 85.772C499.459 85.772 524.96 108.992 527.811 139.372L533.552 200.549C535.389 220.127 519.987 237.041 500.324 237.041H437.775C418.156 237.041 402.769 220.2 404.536 200.661L410.062 139.57Z" fill="white"/>
<path d="M423.174 152.724C425.317 129.024 445.185 110.872 468.982 110.872C492.72 110.872 512.559 128.936 514.777 152.57L519.243 200.163C520.672 215.394 508.69 228.552 493.393 228.552H444.733C429.47 228.552 417.5 215.451 418.875 200.25L423.174 152.724Z" fill="black"/>
<path d="M401.246 68.5921H408.434V154.378H401.246V68.5921Z" fill="white"/>
<path d="M404.84 75.6101C409.9 75.6101 414.002 71.508 414.002 66.4477C414.002 61.3875 409.9 57.2853 404.84 57.2853C399.78 57.2853 395.678 61.3875 395.678 66.4477C395.678 71.508 399.78 75.6101 404.84 75.6101Z" fill="#4680E1"/>
<path d="M389.98 141.899C391.426 132.797 399.976 126.591 409.078 128.037L417.742 129.413L408.582 187.07L399.919 185.694C390.817 184.248 384.611 175.697 386.057 166.596L389.98 141.899Z" fill="white"/>
<path fill-rule="evenodd" clip-rule="evenodd" d="M405.8 186.628L399.919 185.694C399.064 185.558 398.234 185.36 397.434 185.104L405.191 154.054C405.688 152.063 408.643 152.552 408.473 154.597L405.8 186.628Z" fill="#E3E3E3"/>
<path d="M536.782 68.5921H529.594V154.378H536.782V68.5921Z" fill="white"/>
<path d="M533.189 75.6101C528.128 75.6101 524.026 71.508 524.026 66.4477C524.026 61.3875 528.128 57.2853 533.189 57.2853C538.249 57.2853 542.351 61.3875 542.351 66.4477C542.351 71.508 538.249 75.6101 533.189 75.6101Z" fill="#4680E1"/>
<path d="M548.048 141.899C546.602 132.797 538.052 126.591 528.95 128.037L520.286 129.413L529.446 187.07L538.109 185.694C547.211 184.248 553.417 175.697 551.972 166.596L548.048 141.899Z" fill="white"/>
<path fill-rule="evenodd" clip-rule="evenodd" d="M532.228 186.628L538.109 185.694C538.964 185.558 539.794 185.36 540.594 185.104L532.837 154.054C532.34 152.063 529.385 152.552 529.555 154.597L532.228 186.628Z" fill="#E3E3E3"/>
<path d="M439.547 170.939C444.811 165.675 453.347 165.675 458.612 170.939" stroke="#A3F7CA" stroke-width="8.34347" stroke-linecap="round"/>
<path d="M479.416 170.939C484.681 165.675 493.217 165.675 498.481 170.939" stroke="#A3F7CA" stroke-width="8.34347" stroke-linecap="round"/>
<g filter="url(#filter0_d_1_19)">
<path fill-rule="evenodd" clip-rule="evenodd" d="M98.5017 41.4098C72.219 41.4098 50.9127 62.7161 50.9127 88.9988V146.036C50.9127 172.319 72.219 193.625 98.5016 193.625H105.687V217.766C105.687 224.234 113.648 227.311 117.998 222.526L144.271 193.625H297.55C323.833 193.625 345.139 172.319 345.139 146.036V88.9988C345.139 62.7161 323.833 41.4098 297.55 41.4098H98.5017Z" fill="#4680E1"/>
</g>
<path d="M286.174 90.3569H109.878C104.091 90.3569 99.4009 95.0474 99.4009 100.834V100.834C99.4009 106.62 104.091 111.31 109.878 111.31H286.174C291.96 111.31 296.651 106.62 296.651 100.834C296.651 95.0474 291.96 90.3569 286.174 90.3569Z" fill="#306DC6"/>
<path d="M210.308 132.263H109.878C104.091 132.263 99.4009 136.954 99.4009 142.74V142.74C99.4009 148.526 104.091 153.216 109.878 153.216H210.308C216.094 153.216 220.785 148.526 220.785 142.74V142.74C220.785 136.954 216.094 132.263 210.308 132.263Z" fill="#306DC6"/>
<g filter="url(#filter1_d_1_19)">
<path fill-rule="evenodd" clip-rule="evenodd" d="M884.354 291.343C903.944 291.343 919.824 307.223 919.824 326.813V374.11C919.824 393.7 903.944 409.58 884.354 409.58H877.277V428.332C877.277 433.356 871.093 435.747 867.714 432.029L847.305 409.58H726.746C707.157 409.58 691.276 393.7 691.276 374.11V326.813C691.276 307.223 707.157 291.343 726.746 291.343H884.354Z" fill="#FFBD6E"/>
</g>
<path d="M737.079 329.364H874.022C878.516 329.364 882.16 333.008 882.16 337.502V337.502C882.16 341.997 878.516 345.64 874.022 345.64H737.079C732.584 345.64 728.941 341.997 728.941 337.502C728.941 333.008 732.584 329.364 737.079 329.364Z" fill="#E59A48"/>
<path d="M785.933 361.916H874.022C878.516 361.916 882.16 365.559 882.16 370.054V370.054C882.16 374.548 878.516 378.192 874.022 378.192H785.933C781.438 378.192 777.795 374.548 777.795 370.054C777.795 365.559 781.438 361.916 785.933 361.916Z" fill="#E59A48"/>
<path d="M737.079 361.916H752.3C756.794 361.916 760.438 365.559 760.438 370.054V370.054C760.438 374.548 756.794 378.192 752.3 378.192H737.079C732.584 378.192 728.941 374.548 728.941 370.054V370.054C728.941 365.559 732.584 361.916 737.079 361.916Z" fill="#E59A48"/>
</g>
<path d="M474.353 353.581C468.508 357.159 465.851 369.522 468.685 380.221L469.181 382.098L465.958 385.499C455.153 396.8 452.531 405.727 457.243 415.292C460.679 422.342 467.658 426.557 475.381 426.203L477.825 426.097L478.852 430.525C480.447 437.716 480.128 440.55 477.471 442.924C475.522 444.624 473.149 445.262 471.023 444.695C469.677 444.341 469.288 443.632 470.457 443.632C470.74 443.632 471.519 443.136 472.192 442.569C473.078 441.79 473.503 441.011 473.787 439.771C474.46 436.618 473.043 433.926 470.067 432.792C468.721 432.261 468.26 432.261 467.02 432.65C464.966 433.253 463.372 434.953 462.699 437.256C461.494 441.294 463.407 444.943 467.8 446.962C470.173 448.025 474.779 447.99 477.152 446.82C480.978 444.978 482.82 441.932 482.785 437.61C482.749 435.484 481.545 428.328 480.695 425.53C480.588 425.105 481.084 424.644 482.395 423.865C486.327 421.668 488.63 417.913 488.949 413.237C489.303 408.349 487.815 404.133 484.733 401.263C482.466 399.138 480.269 398.217 477.471 398.146L475.275 398.111L474.849 396.162C474.637 395.099 474.247 393.257 473.964 392.124L473.503 389.998L474.885 388.475C479.561 383.409 482.076 376.537 482.076 368.885C482.076 362.721 480.376 357.159 477.577 354.183C476.231 352.766 475.841 352.695 474.353 353.581ZM478.073 362.862C478.64 363.429 478.782 364.031 478.782 365.803C478.782 368.53 477.861 371.365 475.983 374.553C474.46 377.139 471.874 380.15 471.555 379.831C470.953 379.264 470.634 375.19 470.988 372.746C472.015 365.413 475.629 360.418 478.073 362.862ZM471.661 395.099C471.909 396.375 472.192 397.721 472.263 398.111C472.405 398.642 472.122 398.996 471.165 399.528C468.154 401.122 465.533 405.337 465.072 409.305C464.824 411.501 465.71 414.406 467.268 416.426C468.544 418.161 471.803 420.074 473.007 419.826C474.105 419.614 473.716 418.48 472.228 417.488C469.252 415.469 468.473 411.82 470.421 408.88C471.555 407.215 473.503 405.869 473.857 406.542C474.247 407.286 477.152 422.696 476.975 422.908C476.833 423.015 475.735 423.192 474.46 423.333C468.898 423.829 463.549 420.889 461.175 416.036C460.29 414.265 460.183 413.662 460.183 410.332C460.183 406.896 460.254 406.436 461.317 404.239C461.919 402.928 462.982 401.086 463.62 400.165C465.178 397.863 470.705 392.159 470.988 392.513C471.13 392.655 471.449 393.824 471.661 395.099ZM479.774 406.506C484.237 408.738 485.69 415.54 482.537 419.614C481.368 421.137 480.376 421.952 480.021 421.633C479.915 421.527 479.207 418.268 478.427 414.371C477.648 410.51 476.939 406.967 476.833 406.506C476.692 405.869 476.798 405.727 477.4 405.727C477.825 405.727 478.888 406.081 479.774 406.506Z" fill="black"/>
<path d="M763.237 376.994C759.049 387.278 755.607 395.67 755.564 395.653C755.521 395.635 755.085 395.281 754.601 394.857C753.15 393.584 750.325 392.712 748.08 392.833C744.55 393.011 741.598 394.308 740.232 396.301C739.053 398.017 739.161 400.231 740.493 401.859C742.013 403.765 745.737 404.6 749.341 403.871C751.24 403.483 752.664 402.776 754.178 401.474L755.317 400.474L761.2 386.336C766.976 372.459 767.082 372.199 767.488 372.44C769.132 373.488 771.811 376.951 772.501 378.974C773.052 380.536 773.17 383.84 772.779 386.104C772.189 389.599 770.878 391.64 765.875 396.923C765.001 397.829 764.795 398.149 765.143 398.038C766.392 397.638 771.007 392.626 772.879 389.577C773.747 388.189 774.117 387.406 774.481 386.014C775.534 382.127 775.243 379.308 773.191 373.374C770.671 365.987 770.494 364.501 771.711 360.706L772.286 358.921L771.572 358.63L770.835 358.33L763.237 376.994Z" fill="black" fill-opacity="0.4"/>
<path d="M293.602 129.062C292.56 129.079 286.297 129.004 279.67 128.891C273.042 128.779 266.265 128.685 264.594 128.682L261.564 128.699L257.581 143.656L253.626 158.62L252.378 157.546C251.299 156.602 250.834 156.394 248.459 155.776C246.057 155.15 245.577 155.112 244.221 155.45C237.224 157.086 235.475 164.353 241.018 168.852C243.628 171.002 247.228 171.565 250.568 170.36C251.871 169.892 252.6 169.419 253.537 168.367L254.768 166.958L258.523 153.095L262.279 139.232L275.21 139.372C282.339 139.443 288.487 139.517 288.94 139.548L289.711 139.576L287.18 149.291C285.788 154.635 284.595 158.993 284.541 158.979C284.487 158.965 283.816 158.444 283.058 157.814C281.186 156.26 277.853 155.335 275.617 155.732C272.06 156.333 269.727 158.319 268.933 161.368C268.174 164.283 269.156 166.931 271.858 169.277C272.777 170.064 273.343 170.327 275.637 170.925C278.039 171.55 278.519 171.589 279.875 171.25C281.841 170.783 283.807 169.652 284.936 168.304C285.812 167.264 285.897 166.94 290.878 148.151C293.639 137.66 295.814 129.091 295.706 129.063C295.591 129.062 294.644 129.046 293.602 129.062Z" fill="black" fill-opacity="0.4"/>
<path d="M436 202.5V203C436 208.523 440.477 213 446 213H469.5H493C498.523 213 503 208.523 503 203V202.5V202C503 196.477 498.523 192 493 192H469.5H446C440.477 192 436 196.477 436 202V202.5ZM439.736 197.539C439.767 200.43 439.767 202.987 439.736 203.2C439.705 203.443 439.952 203.687 440.292 203.778C440.909 203.93 440.94 204.143 440.94 208.343V210.501C440.94 211.715 439.93 212.685 438.717 212.635V212.635V212.635C437.457 212.584 436.46 211.549 436.456 210.288L436.432 202.652C436.401 197.204 436.432 192.67 436.525 192.517C436.587 192.396 437.328 192.304 438.192 192.304V192.304C439.029 192.304 439.709 192.98 439.714 193.817L439.736 197.539ZM444.645 198.087C444.645 203.017 444.707 203.87 445.108 203.87C445.51 203.87 445.571 204.57 445.571 208.283V210.534C445.571 211.728 444.604 212.696 443.41 212.696V212.696V212.696C442.216 212.696 441.249 211.728 441.249 210.534V208.283C441.249 204.083 441.28 203.87 441.866 203.87C442.453 203.87 442.484 203.657 442.484 198.087V193.385C442.484 192.788 442.968 192.304 443.565 192.304V192.304V192.304C444.161 192.304 444.645 192.788 444.645 193.385V198.087ZM450.512 202.5V210.534C450.512 211.728 449.544 212.696 448.35 212.696V212.696V212.696C447.157 212.696 446.189 211.728 446.189 210.534V208.283C446.189 204.57 446.251 203.87 446.652 203.87C447.053 203.87 447.115 203.017 447.115 198.087V194.003C447.115 193.065 447.875 192.304 448.813 192.304V192.304V192.304C449.751 192.304 450.512 193.065 450.512 194.003V202.5ZM453.908 198.087C453.908 203.657 453.939 203.87 454.525 203.87C455.112 203.87 455.143 204.083 455.143 208.283V210.655C455.143 211.784 454.202 212.685 453.074 212.635V212.635V212.635C451.897 212.584 450.966 211.62 450.955 210.442L450.882 202.804C450.858 198.693 450.871 195.066 450.92 193.505C450.937 192.966 451.144 192.45 451.676 192.364C451.913 192.325 452.199 192.304 452.518 192.304V192.304C453.286 192.304 453.908 192.926 453.908 193.694V198.087ZM458.848 198.087C458.848 203.017 458.91 203.87 459.311 203.87C459.712 203.87 459.774 204.57 459.774 208.283V210.534C459.774 211.728 458.807 212.696 457.613 212.696V212.696V212.696C456.419 212.696 455.452 211.728 455.452 210.534V208.283C455.452 204.083 455.482 203.87 456.069 203.87C456.656 203.87 456.687 203.657 456.687 198.087V193.385C456.687 192.788 457.17 192.304 457.767 192.304V192.304V192.304C458.364 192.304 458.848 192.788 458.848 193.385V198.087ZM463.479 198.087C463.479 203.657 463.51 203.87 464.097 203.87C464.683 203.87 464.714 204.083 464.714 208.283V210.534C464.714 211.728 463.747 212.696 462.553 212.696V212.696V212.696C461.359 212.696 460.392 211.728 460.392 210.534V208.283C460.392 204.57 460.453 203.87 460.855 203.87C461.256 203.87 461.318 203.048 461.318 198.3C461.318 196.407 461.353 194.687 461.409 193.624C461.448 192.882 461.872 192.304 462.615 192.304V192.304V192.304C463.092 192.304 463.479 192.691 463.479 193.169V198.087ZM469.654 202.5V210.38C469.654 211.659 468.618 212.696 467.339 212.696V212.696V212.696C466.06 212.696 465.023 211.659 465.023 210.38V208.283C465.023 204.083 465.054 203.87 465.641 203.87C466.227 203.87 466.258 203.657 466.258 198.087V194.003C466.258 193.065 467.018 192.304 467.956 192.304V192.304V192.304C468.894 192.304 469.654 193.065 469.654 194.003V202.5ZM473.051 198.087C473.051 203.657 473.082 203.87 473.668 203.87C474.255 203.87 474.286 204.083 474.286 208.283V210.534C474.286 211.728 473.318 212.696 472.124 212.696V212.696V212.696C470.931 212.696 469.963 211.728 469.963 210.534V202.5V193.848C469.963 192.996 470.654 192.304 471.507 192.304V192.304V192.304C472.36 192.304 473.051 192.996 473.051 193.848V198.087ZM477.682 198.087C477.682 203.657 477.713 203.87 478.3 203.87C478.886 203.87 478.917 204.083 478.917 208.283V210.534C478.917 211.728 477.949 212.696 476.756 212.696V212.696V212.696C475.562 212.696 474.594 211.728 474.594 210.534V208.283C474.594 204.296 474.656 203.87 475.15 203.87C475.644 203.87 475.675 203.443 475.582 198.513C475.521 195.561 475.552 192.974 475.644 192.73C475.737 192.487 476.231 192.304 476.756 192.304V192.304C477.267 192.304 477.682 192.719 477.682 193.231V198.087ZM483.857 202.5V210.38C483.857 211.659 482.82 212.696 481.541 212.696V212.696V212.696C480.263 212.696 479.226 211.659 479.226 210.38V208.283C479.226 204.083 479.257 203.87 479.843 203.87C480.43 203.87 480.461 203.657 480.461 198.087V194.003C480.461 193.065 481.221 192.304 482.159 192.304V192.304V192.304C483.097 192.304 483.857 193.065 483.857 194.003V202.5ZM486.945 198.087C486.945 203.657 486.976 203.87 487.562 203.87C488.149 203.87 488.18 204.083 488.18 208.283V210.689C488.18 211.797 487.281 212.696 486.173 212.696V212.696V212.696C485.064 212.696 484.166 211.797 484.166 210.689V202.5V193.694C484.166 192.926 484.788 192.304 485.555 192.304V192.304V192.304C486.323 192.304 486.945 192.926 486.945 193.694V198.087ZM491.885 198.087C491.885 203.017 491.947 203.87 492.348 203.87C492.749 203.87 492.811 204.57 492.811 208.283V210.534C492.811 211.728 491.843 212.696 490.65 212.696V212.696V212.696C489.456 212.696 488.488 211.728 488.488 210.534V208.283C488.488 204.083 488.519 203.87 489.106 203.87C489.693 203.87 489.723 203.657 489.723 198.087V193.385C489.723 192.788 490.207 192.304 490.804 192.304V192.304V192.304C491.401 192.304 491.885 192.788 491.885 193.385V198.087ZM496.516 198.087C496.516 203.657 496.547 203.87 497.134 203.87C497.72 203.87 497.751 204.083 497.751 208.283V210.534C497.751 211.728 496.784 212.696 495.59 212.696V212.696V212.696C494.396 212.696 493.429 211.728 493.429 210.534V208.283C493.429 204.57 493.49 203.87 493.892 203.87C494.293 203.87 494.355 203.017 494.355 198.087V193.385C494.355 192.788 494.839 192.304 495.435 192.304V192.304V192.304C496.032 192.304 496.516 192.788 496.516 193.385V198.087ZM502.691 202.5V210.38C502.691 211.659 501.654 212.696 500.376 212.696V212.696V212.696C499.097 212.696 498.06 211.659 498.06 210.38V208.283C498.06 204.083 498.091 203.87 498.677 203.87C499.264 203.87 499.295 203.657 499.295 198.087V194.002C499.295 193.065 500.055 192.304 500.993 192.304V192.304V192.304C501.931 192.304 502.691 193.065 502.691 194.003V202.5Z" fill="black"/>
<path d="M502.691 202.5V210.38C502.691 211.659 501.654 212.696 500.376 212.696V212.696V212.696C499.097 212.696 498.06 211.659 498.06 210.38V208.283C498.06 204.083 498.091 203.87 498.677 203.87C499.264 203.87 499.295 203.657 499.295 198.087V194.002C499.295 193.065 500.055 192.304 500.993 192.304V192.304V192.304C501.931 192.304 502.691 193.065 502.691 194.003V202.5Z" fill="white"/>
<path d="M491.885 198.087C491.885 203.017 491.947 203.87 492.348 203.87C492.749 203.87 492.811 204.57 492.811 208.283V210.534C492.811 211.728 491.843 212.696 490.65 212.696V212.696V212.696C489.456 212.696 488.488 211.728 488.488 210.534V208.283C488.488 204.083 488.519 203.87 489.106 203.87C489.693 203.87 489.723 203.657 489.723 198.087V193.385C489.723 192.788 490.207 192.304 490.804 192.304V192.304V192.304C491.401 192.304 491.885 192.788 491.885 193.385V198.087Z" fill="white"/>
<path d="M496.516 198.087C496.516 203.657 496.547 203.87 497.134 203.87C497.72 203.87 497.751 204.083 497.751 208.283V210.534C497.751 211.728 496.784 212.696 495.59 212.696V212.696V212.696C494.396 212.696 493.429 211.728 493.429 210.534V208.283C493.429 204.57 493.49 203.87 493.892 203.87C494.293 203.87 494.355 203.017 494.355 198.087V193.385C494.355 192.788 494.839 192.304 495.435 192.304V192.304V192.304C496.032 192.304 496.516 192.788 496.516 193.385V198.087Z" fill="white"/>
<path d="M486.945 198.087C486.945 203.657 486.976 203.87 487.562 203.87C488.149 203.87 488.18 204.083 488.18 208.283V210.689C488.18 211.797 487.281 212.696 486.173 212.696V212.696V212.696C485.064 212.696 484.166 211.797 484.166 210.689V202.5V193.694C484.166 192.926 484.788 192.304 485.555 192.304V192.304V192.304C486.323 192.304 486.945 192.926 486.945 193.694V198.087Z" fill="white"/>
<path d="M483.857 202.5V210.38C483.857 211.659 482.82 212.696 481.541 212.696V212.696V212.696C480.263 212.696 479.226 211.659 479.226 210.38V208.283C479.226 204.083 479.257 203.87 479.843 203.87C480.43 203.87 480.461 203.657 480.461 198.087V194.003C480.461 193.065 481.221 192.304 482.159 192.304V192.304V192.304C483.097 192.304 483.857 193.065 483.857 194.003V202.5Z" fill="white"/>
<path d="M477.682 198.087C477.682 203.657 477.713 203.87 478.3 203.87C478.886 203.87 478.917 204.083 478.917 208.283V210.534C478.917 211.728 477.949 212.696 476.756 212.696V212.696V212.696C475.562 212.696 474.594 211.728 474.594 210.534V208.283C474.594 204.296 474.656 203.87 475.15 203.87C475.644 203.87 475.675 203.443 475.582 198.513C475.521 195.561 475.552 192.974 475.644 192.73C475.737 192.487 476.231 192.304 476.756 192.304V192.304C477.267 192.304 477.682 192.719 477.682 193.231V198.087Z" fill="white"/>
<path d="M473.051 198.087C473.051 203.657 473.082 203.87 473.668 203.87C474.255 203.87 474.286 204.083 474.286 208.283V210.534C474.286 211.728 473.318 212.696 472.124 212.696V212.696V212.696C470.931 212.696 469.963 211.728 469.963 210.534V202.5V193.848C469.963 192.996 470.654 192.304 471.507 192.304V192.304V192.304C472.36 192.304 473.051 192.996 473.051 193.848V198.087Z" fill="white"/>
<path d="M469.654 202.5V210.38C469.654 211.659 468.618 212.696 467.339 212.696V212.696V212.696C466.06 212.696 465.023 211.659 465.023 210.38V208.283C465.023 204.083 465.054 203.87 465.641 203.87C466.227 203.87 466.258 203.657 466.258 198.087V194.003C466.258 193.065 467.018 192.304 467.956 192.304V192.304V192.304C468.894 192.304 469.654 193.065 469.654 194.003V202.5Z" fill="white"/>
<path d="M463.479 198.087C463.479 203.657 463.51 203.87 464.097 203.87C464.683 203.87 464.714 204.083 464.714 208.283V210.534C464.714 211.728 463.747 212.696 462.553 212.696V212.696V212.696C461.359 212.696 460.392 211.728 460.392 210.534V208.283C460.392 204.57 460.453 203.87 460.855 203.87C461.256 203.87 461.318 203.048 461.318 198.3C461.318 196.407 461.353 194.687 461.409 193.624C461.448 192.882 461.872 192.304 462.615 192.304V192.304V192.304C463.092 192.304 463.479 192.691 463.479 193.169V198.087Z" fill="white"/>
<path d="M458.848 198.087C458.848 203.017 458.91 203.87 459.311 203.87C459.712 203.87 459.774 204.57 459.774 208.283V210.534C459.774 211.728 458.807 212.696 457.613 212.696V212.696V212.696C456.419 212.696 455.452 211.728 455.452 210.534V208.283C455.452 204.083 455.482 203.87 456.069 203.87C456.656 203.87 456.687 203.657 456.687 198.087V193.385C456.687 192.788 457.17 192.304 457.767 192.304V192.304V192.304C458.364 192.304 458.848 192.788 458.848 193.385V198.087Z" fill="white"/>
<path d="M453.908 198.087C453.908 203.657 453.939 203.87 454.525 203.87C455.112 203.87 455.143 204.083 455.143 208.283V210.655C455.143 211.784 454.202 212.685 453.074 212.635V212.635V212.635C451.897 212.584 450.966 211.62 450.955 210.442L450.882 202.804C450.858 198.693 450.871 195.066 450.92 193.505C450.937 192.966 451.144 192.45 451.676 192.364C451.913 192.325 452.199 192.304 452.518 192.304V192.304C453.286 192.304 453.908 192.926 453.908 193.694V198.087Z" fill="white"/>
<path d="M450.512 202.5V210.534C450.512 211.728 449.544 212.696 448.35 212.696V212.696V212.696C447.157 212.696 446.189 211.728 446.189 210.534V208.283C446.189 204.57 446.251 203.87 446.652 203.87C447.053 203.87 447.115 203.017 447.115 198.087V194.003C447.115 193.065 447.875 192.304 448.813 192.304V192.304V192.304C449.751 192.304 450.512 193.065 450.512 194.003V202.5Z" fill="white"/>
<path d="M444.645 198.087C444.645 203.017 444.707 203.87 445.108 203.87C445.51 203.87 445.571 204.57 445.571 208.283V210.534C445.571 211.728 444.604 212.696 443.41 212.696V212.696V212.696C442.216 212.696 441.249 211.728 441.249 210.534V208.283C441.249 204.083 441.28 203.87 441.866 203.87C442.453 203.87 442.484 203.657 442.484 198.087V193.385C442.484 192.788 442.968 192.304 443.565 192.304V192.304V192.304C444.161 192.304 444.645 192.788 444.645 193.385V198.087Z" fill="white"/>
<path d="M439.736 197.539C439.767 200.43 439.767 202.987 439.736 203.2C439.705 203.443 439.952 203.687 440.292 203.778C440.909 203.93 440.94 204.143 440.94 208.343V210.501C440.94 211.715 439.93 212.685 438.717 212.635V212.635V212.635C437.457 212.584 436.46 211.549 436.456 210.288L436.432 202.652C436.401 197.204 436.432 192.67 436.525 192.517C436.587 192.396 437.328 192.304 438.192 192.304V192.304C439.029 192.304 439.709 192.98 439.714 193.817L439.736 197.539Z" fill="white"/>
</g>
<defs>
<filter id="filter0_d_1_19" x="33.4127" y="34.9098" width="329.226" height="218.446" filterUnits="userSpaceOnUse" color-interpolation-filters="sRGB">
<feFlood flood-opacity="0" result="BackgroundImageFix"/>
<feColorMatrix in="SourceAlpha" type="matrix" values="0 0 0 0 0 0 0 0 0 0 0 0 0 0 0 0 0 0 127 0" result="hardAlpha"/>
<feOffset dy="11"/>
<feGaussianBlur stdDeviation="8.75"/>
<feComposite in2="hardAlpha" operator="out"/>
<feColorMatrix type="matrix" values="0 0 0 0 0 0 0 0 0 0 0 0 0 0 0 0 0 0 0.25 0"/>
<feBlend mode="normal" in2="BackgroundImageFix" result="effect1_dropShadow_1_19"/>
<feBlend mode="normal" in="SourceGraphic" in2="effect1_dropShadow_1_19" result="shape"/>
</filter>
<filter id="filter1_d_1_19" x="673.476" y="284.543" width="264.148" height="178.097" filterUnits="userSpaceOnUse" color-interpolation-filters="sRGB">
<feFlood flood-opacity="0" result="BackgroundImageFix"/>
<feColorMatrix in="SourceAlpha" type="matrix" values="0 0 0 0 0 0 0 0 0 0 0 0 0 0 0 0 0 0 127 0" result="hardAlpha"/>
<feOffset dy="11"/>
<feGaussianBlur stdDeviation="8.9"/>
<feComposite in2="hardAlpha" operator="out"/>
<feColorMatrix type="matrix" values="0 0 0 0 0 0 0 0 0 0 0 0 0 0 0 0 0 0 0.25 0"/>
<feBlend mode="normal" in2="BackgroundImageFix" result="effect1_dropShadow_1_19"/>
<feBlend mode="normal" in="SourceGraphic" in2="effect1_dropShadow_1_19" result="shape"/>
</filter>
<clipPath id="clip0_1_19">
<rect width="945" height="495" fill="white"/>
</clipPath>
</defs>
</svg>
